<?xml version="1.0" encoding="UTF-8"?>
<svg version="1.1" xmlns="http://www.w3.org/2000/svg" width="128" height="128">
<path d="M0 0 C8.08125048 5.68466187 13.64753155 12.32114345 15.6328125 22.125 C15.94651582 24.15660243 16.22159485 26.1948115 16.4453125 28.23828125 C17.07002074 31.3486244 18.3320278 33.32770502 20 36 C20.56426064 40.43347649 20.28011332 42.48645892 18.125 46.4375 C17.073125 47.7059375 17.073125 47.7059375 16 49 C15.34 49 14.68 49 14 49 C14.01160156 49.63808594 14.02320312 50.27617188 14.03515625 50.93359375 C14.04417969 51.75988281 14.05320312 52.58617187 14.0625 53.4375 C14.07410156 54.26121094 14.08570312 55.08492187 14.09765625 55.93359375 C14 58 14 58 13 59 C9.70315145 59.28609016 6.40618875 59.44890147 3.1015625 59.62109375 C-0.16318346 59.78399964 -0.16318346 59.78399964 -3 62 C-3.72965366 64.56282742 -3.72965366 64.56282742 -4 67 C-2.61941406 67.07347656 -2.61941406 67.07347656 -1.2109375 67.1484375 C26.3741066 68.77769672 26.3741066 68.77769672 33 75 C36.92057909 80.59244359 37.56651194 85.82031052 37.42578125 92.49609375 C37.42084908 93.80731956 37.42084908 93.80731956 37.41581726 95.14503479 C37.40546196 96.97624256 37.38562479 98.8074193 37.35668945 100.63842773 C37.31224275 103.45379491 37.29519097 106.2683082 37.28320312 109.08398438 C37.26979308 110.86719995 37.25487401 112.65040495 37.23828125 114.43359375 C37.23089432 115.2782872 37.22350739 116.12298065 37.21589661 116.99327087 C37.11836752 122.88163248 37.11836752 122.88163248 36 124 C34.5982167 124.09762523 33.19155547 124.12631658 31.78637695 124.12698364 C30.42338974 124.13121338 30.42338974 124.13121338 29.03286743 124.13552856 C27.52579727 124.13249222 27.52579727 124.13249222 25.98828125 124.12939453 C24.9363559 124.13114685 23.88443054 124.13289917 22.80062866 124.13470459 C19.30456926 124.13912543 15.80855997 124.13618429 12.3125 124.1328125 C9.89493805 124.13348547 7.47737617 124.13445544 5.05981445 124.13571167 C-0.01449221 124.13718896 -5.08878131 124.13503309 -10.16308594 124.13037109 C-16.68384703 124.1246738 -23.20456696 124.12795263 -29.72532654 124.13394356 C-34.71968906 124.13754833 -39.71404174 124.13641097 -44.70840454 124.13381577 C-47.11349492 124.13314626 -49.51858618 124.13397572 -51.92367554 124.13629532 C-55.27856835 124.13882048 -58.6333935 124.13498317 -61.98828125 124.12939453 C-62.99299469 124.13141876 -63.99770813 124.13344299 -65.03286743 124.13552856 C-66.39585464 124.13129883 -66.39585464 124.13129883 -67.78637695 124.12698364 C-68.58058548 124.12660662 -69.37479401 124.12622959 -70.19306946 124.12584114 C-72 124 -72 124 -73 123 C-73.13854244 120.13647098 -73.21322401 117.29888147 -73.23828125 114.43359375 C-73.246353 113.56614029 -73.25442474 112.69868683 -73.26274109 111.8049469 C-73.27660502 109.96137502 -73.28731679 108.11777722 -73.29516602 106.27416992 C-73.31228132 103.47328654 -73.35613341 100.67361363 -73.40039062 97.87304688 C-73.41052595 96.08073784 -73.41903942 94.28841876 -73.42578125 92.49609375 C-73.44328934 91.66556992 -73.46079742 90.83504608 -73.47883606 89.97935486 C-73.45468083 83.39886417 -71.90876336 78.00768158 -67.24829102 73.1887207 C-61.65413655 69.85913681 -56.36424375 68.87156696 -49.9375 68.1875 C-48.50567383 68.00670898 -48.50567383 68.00670898 -47.04492188 67.82226562 C-41.99752994 67.21267723 -37.08210645 66.86607486 -32 67 C-32.04452419 64.67108098 -32.04452419 64.67108098 -33 62 C-34.47758393 60.71514441 -35.96300612 59.43420298 -37.53125 58.26171875 C-39 57 -39 57 -40.375 54.3125 C-42.5618045 51.20050897 -44.39794883 51.28289746 -47.99609375 50.59375 C-51.21768077 49.6392057 -52.91270488 47.53005469 -55 45 C-56.53214888 41.93570224 -56.22938548 39.3834358 -56 36 C-55.51789062 35.21625 -55.03578125 34.4325 -54.5390625 33.625 C-52.82787715 30.70643007 -52.49075465 28.65335653 -52.125 25.3125 C-50.69076964 15.82092671 -46.75737196 7.86278304 -39 2 C-26.91611949 -5.17946604 -12.73761236 -7.09557685 0 0 Z M-42 12 C-45.51853529 17.07441939 -46.56495962 21.90943462 -47 28 C-46.34 28 -45.68 28 -45 28 C-44.69707031 27.11957031 -44.39414062 26.23914063 -44.08203125 25.33203125 C-39.88349587 13.69239932 -39.88349587 13.69239932 -35 10 C-34.05125 9.278125 -33.1025 8.55625 -32.125 7.8125 C-26.46100027 4.52738015 -20.52960206 3.04776637 -14 4 C-10.23444806 5.10874585 -6.61097438 6.46365376 -3 8 C-2.27296875 8.29132812 -1.5459375 8.58265625 -0.796875 8.8828125 C1.47673581 10.29640531 1.98736906 11.54979477 3 14 C3.495 14.95519531 3.495 14.95519531 4 15.9296875 C6.03081584 19.88025894 7.71853211 23.72844035 9 28 C9.66 28 10.32 28 11 28 C10.41636989 19.82917849 8.40262093 13.93977433 2.3125 8.25 C-5.31779602 2.13176264 -11.80114441 0.29337148 -21.6328125 0.62109375 C-30.00336274 1.56302342 -36.41344535 5.79412142 -42 12 Z M-35.5546875 15.98828125 C-37.36671684 18.5104302 -38.1381605 21.03376598 -39 24 C-36.62429457 24.0816082 -34.25144159 24.14077222 -31.875 24.1875 C-30.87726562 24.22520508 -30.87726562 24.22520508 -29.859375 24.26367188 C-25.12215991 24.3333368 -22.02047125 23.4800836 -18 21 C-17.29875 20.2575 -16.5975 19.515 -15.875 18.75 C-14 17 -14 17 -12.125 16.9375 C-10 18 -10 18 -7.1875 20.5 C-4.0239031 23.30759111 -1.22954713 23.74622717 3 24 C1.83131106 17.32177749 -2.80400766 13.84626937 -8 10 C-18.21256017 4.99792971 -27.98406313 8.43526298 -35.5546875 15.98828125 Z M-13 23 C-16.20200378 24.60662353 -16.20200378 24.60662353 -18.12109375 25.95703125 C-22.58121392 28.43281521 -27.82373853 28.27129 -32.8125 28.5625 C-33.50537109 28.60568359 -34.19824219 28.64886719 -34.91210938 28.69335938 C-36.60788686 28.79861453 -38.30392052 28.89972863 -40 29 C-40.55232922 38.20548704 -40.94096963 46.38191454 -35 54 C-29.67440306 59.05620877 -25.32933306 61.14259214 -17.9375 61.1875 C-16.87402344 61.20167969 -15.81054688 61.21585938 -14.71484375 61.23046875 C-11.85138319 61.28122312 -11.85138319 61.28122312 -10 59 C-12.97 58.67 -15.94 58.34 -19 58 C-19.33 56.68 -19.66 55.36 -20 54 C-13.73 54 -7.46 54 -1 54 C4.36205486 45.28666085 4.59832539 38.97208979 4 29 C3.10796875 28.73445313 2.2159375 28.46890625 1.296875 28.1953125 C0.12640625 27.84210937 -1.0440625 27.48890625 -2.25 27.125 C-3.41015625 26.77695312 -4.5703125 26.42890625 -5.765625 26.0703125 C-9 25 -9 25 -11.20703125 23.75390625 C-11.79871094 23.50511719 -12.39039062 23.25632812 -13 23 Z M-49.75 34.5625 C-51.53662547 38.04641968 -50.96480532 40.27860804 -50 44 C-47.18490007 46.2773501 -47.18490007 46.2773501 -44 46 C-44.33 41.71 -44.66 37.42 -45 33 C-48.01803793 32.66699212 -48.01803793 32.66699212 -49.75 34.5625 Z M9 33 C8.67 37.29 8.34 41.58 8 46 C9.65 45.67 11.3 45.34 13 45 C15.37222995 42.10420618 15.37222995 42.10420618 14.75 38.4375 C14.3141556 34.95407388 14.3141556 34.95407388 12 33 C11.01 33 10.02 33 9 33 Z M6 51 C5.67 51.99 5.34 52.98 5 54 C6.65 54 8.3 54 10 54 C10 53.01 10 52.02 10 51 C8.68 51 7.36 51 6 51 Z M-27 65 C-24.91039421 69.17921158 -24.13221626 70.174137 -20 72 C-15.52257465 71.88519422 -12.48566626 69.6750462 -9 67 C-9 66.34 -9 65.68 -9 65 C-14.94 65 -20.88 65 -27 65 Z M-33 71 C-31.64978174 75.41889613 -29.73884332 77.34345343 -26 80 C-24.45833358 78.62514468 -24.45833358 78.62514468 -23 77 C-23 76.34 -23 75.68 -23 75 C-26.67452438 72.1605948 -28.26886581 71 -33 71 Z M-13 75 C-12.34 76.32 -11.68 77.64 -11 79 C-10.01 79 -9.02 79 -8 79 C-4.34079297 75.54032783 -4.34079297 75.54032783 -3 71 C-7.71906188 71 -9.27037031 72.28754204 -13 75 Z M3 72 C2.32453125 72.9384375 1.6490625 73.876875 0.953125 74.84375 C0.05275727 76.06299797 -0.84832158 77.28172102 -1.75 78.5 C-2.1934375 79.12003906 -2.636875 79.74007812 -3.09375 80.37890625 C-4.421875 82.15625 -4.421875 82.15625 -7 85 C-8.32 85 -9.64 85 -11 85 C-12.7257323 91.06060748 -11.0159417 96.20894035 -9.5 102.125 C-9.00199596 104.08381589 -8.51206484 106.04470659 -8.03125 108.0078125 C-7.81017578 108.87035645 -7.58910156 109.73290039 -7.36132812 110.62158203 C-6.97179385 113.18566509 -7.0383462 114.60148555 -8 117 C-8.99 117.99 -9.98 118.98 -11 120 C-2.42 120 6.16 120 15 120 C15.33 112.08 15.66 104.16 16 96 C16.99 96 17.98 96 19 96 C19.33 98.31 19.66 100.62 20 103 C23.96 103 27.92 103 32 103 C32.08115993 99.93696422 32.14057409 96.87609185 32.1875 93.8125 C32.21263672 92.94818359 32.23777344 92.08386719 32.26367188 91.19335938 C32.33738431 84.7803777 31.37691411 81.60306711 26.98828125 76.796875 C22.59841077 74.15721432 18.21887659 73.82443521 13.1875 73.25 C12.20845703 73.12496094 11.22941406 72.99992187 10.22070312 72.87109375 C7.81523133 72.56600952 5.40893241 72.27617928 3 72 Z M-50.1875 73.125 C-51.02603516 73.2178125 -51.86457031 73.310625 -52.72851562 73.40625 C-58.8540711 74.26698379 -62.981498 76.18146537 -67 81 C-67.94137255 83.82411765 -68.11725382 85.52918032 -68.09765625 88.44921875 C-68.09443359 89.29677734 -68.09121094 90.14433594 -68.08789062 91.01757812 C-68.07951172 91.89865234 -68.07113281 92.77972656 -68.0625 93.6875 C-68.05798828 94.58017578 -68.05347656 95.47285156 -68.04882812 96.39257812 C-68.03705004 98.59508073 -68.01911481 100.79754885 -68 103 C-64.04 103 -60.08 103 -56 103 C-55.67 100.69 -55.34 98.38 -55 96 C-54.01 96 -53.02 96 -52 96 C-51.67 103.92 -51.34 111.84 -51 120 C-42.42 120 -33.84 120 -25 120 C-26.32 118.68 -27.64 117.36 -29 116 C-29.05859375 113.44140625 -29.05859375 113.44140625 -28.4375 110.5625 C-28.22351562 109.50933594 -28.00953125 108.45617187 -27.7890625 107.37109375 C-27.25499562 105.08941199 -26.70772452 102.8107874 -26.1484375 100.53515625 C-25.87257812 99.40980469 -25.59671875 98.28445312 -25.3125 97.125 C-25.04050781 96.09632812 -24.76851562 95.06765625 -24.48828125 94.0078125 C-23.95474836 90.72124992 -24.2811489 88.23241769 -25 85 C-26.09248047 84.94005859 -26.09248047 84.94005859 -27.20703125 84.87890625 C-31.05415387 83.66827326 -32.53396827 81.1476197 -34.6875 77.9375 C-36.08008851 75.90961491 -37.50016288 73.95361889 -39 72 C-42.75888779 72 -46.4681312 72.62200497 -50.1875 73.125 Z M-19 79 C-20.12516085 80.83284443 -20.12516085 80.83284443 -21 83 C-20.67 83.99 -20.34 84.98 -20 86 C-18.68 86 -17.36 86 -16 86 C-15.67 84.35 -15.34 82.7 -15 81 C-16.32 80.34 -17.64 79.68 -19 79 Z M-19 90 C-20.60876808 93.75612374 -21.69732298 97.45973338 -22.625 101.4375 C-22.88539062 102.52933594 -23.14578125 103.62117188 -23.4140625 104.74609375 C-23.9925918 107.95885978 -24.28767235 110.74744644 -24 114 C-21.62157423 116.40406384 -21.62157423 116.40406384 -19 118 C-16.08482708 116.92598892 -14.22189824 116.22189824 -12 114 C-11.68415754 106.5852223 -13.54984988 97.942092 -16 91 C-16.99 90.67 -17.98 90.34 -19 90 Z M-68 107 C-68 111.29 -68 115.58 -68 120 C-64.04 120 -60.08 120 -56 120 C-56 115.71 -56 111.42 -56 107 C-59.96 107 -63.92 107 -68 107 Z M20 107 C20 111.29 20 115.58 20 120 C23.96 120 27.92 120 32 120 C32 115.71 32 111.42 32 107 C28.04 107 24.08 107 20 107 Z " fill="#0B2354" transform="translate(82,4)"/>
<path d="M0 0 C1.4540625 0.0309375 1.4540625 0.0309375 2.9375 0.0625 C3.2675 1.7125 3.5975 3.3625 3.9375 5.0625 C1.6275 5.0625 -0.6825 5.0625 -3.0625 5.0625 C-3.625 3.125 -3.625 3.125 -4.0625 1.0625 C-3.0625 0.0625 -3.0625 0.0625 0 0 Z " fill="#0C2454" transform="translate(75.0625,36.9375)"/>
<path d="M0 0 C1.98 0 3.96 0 6 0 C6.5625 1.9375 6.5625 1.9375 7 4 C6 5 6 5 2.4375 5.0625 C1.303125 5.041875 0.16875 5.02125 -1 5 C-0.67 3.35 -0.34 1.7 0 0 Z " fill="#0C2455" transform="translate(50,37)"/>
</svg>
