<?xml version="1.0" encoding="UTF-8"?>
<svg version="1.1" xmlns="http://www.w3.org/2000/svg" width="122" height="122">
<path d="M0 0 C0.77625732 -0.00644531 1.55251465 -0.01289063 2.35229492 -0.01953125 C8.11864224 0.10887045 12.51451524 1.13456664 16.73828125 5.3671875 C17.21652344 6.02976562 17.69476563 6.69234375 18.1875 7.375 C18.92419922 8.36113281 18.92419922 8.36113281 19.67578125 9.3671875 C21.01452352 11.7481428 21.39506423 13.82768677 21.875 16.5 C22.7283342 16.49333817 23.5816684 16.48667633 24.46086121 16.47981262 C32.50900417 16.41966168 40.55707147 16.37400534 48.60538769 16.34456348 C52.74296356 16.32891818 56.88035343 16.30770083 61.01782227 16.27368164 C65.01191851 16.24104741 69.00583602 16.22313844 73.00005531 16.21536827 C74.52267584 16.20983203 76.04528675 16.199021 77.56783104 16.18280983 C79.7032307 16.16098086 81.8378951 16.15803526 83.97338867 16.15942383 C85.1880632 16.15276199 86.40273773 16.14610016 87.65422058 16.13923645 C92.30073541 16.65969841 94.83033106 18.50277532 98.15429688 21.67578125 C100.39093993 25.34682081 100.45155824 28.51328123 100.40625 32.6875 C100.41199036 33.85768677 100.41199036 33.85768677 100.41784668 35.05151367 C100.42056005 36.69548844 100.41323905 38.33950681 100.39648438 39.98339844 C100.37506386 42.49252023 100.39630273 44.99877922 100.421875 47.5078125 C100.41923162 49.10938129 100.41410642 50.7109483 100.40625 52.3125 C100.41434692 53.05846436 100.42244385 53.80442871 100.43078613 54.57299805 C100.34239943 59.50966392 99.3876871 62.03560832 95.875 65.5 C90.70745145 69.06806924 85.91153699 68.8221077 79.875 68.5 C78.885 70.48 78.885 70.48 77.875 72.5 C74.55394713 73.09608641 72.44444447 72.82418869 69.5078125 71.15234375 C65.87467641 68.51164579 63.32893873 66.53167893 61.5 62.375 C62.03067982 58.30645469 63.75527603 57.07716328 66.875 54.5 C67.679375 53.736875 68.48375 52.97375 69.3125 52.1875 C72.40196335 50.15297536 74.24680432 50.16249343 77.875 50.5 C78.865 52.48 78.865 52.48 79.875 54.5 C82.34766765 54.15555119 82.34766765 54.15555119 84.875 53.5 C86.6430198 49.9639604 86.05964913 45.89428745 86.0625 42 C86.07474609 41.11957031 86.08699219 40.23914062 86.09960938 39.33203125 C86.10154297 38.49027344 86.10347656 37.64851563 86.10546875 36.78125 C86.10957764 36.00845703 86.11368652 35.23566406 86.11791992 34.43945312 C86.04676616 32.26260287 86.04676616 32.26260287 83.875 30.5 C81.16465362 30.16767316 81.16465362 30.16767316 77.95654297 30.18115234 C76.71540741 30.16128265 75.47427185 30.14141296 74.19552612 30.12094116 C72.83608173 30.10906389 71.47663545 30.09740108 70.1171875 30.0859375 C68.72997882 30.06723271 67.3427816 30.04765981 65.95559692 30.0272522 C62.30274196 29.97585188 58.64985006 29.93626875 54.99682617 29.89910889 C51.26992603 29.85911852 47.54318051 29.80800361 43.81640625 29.7578125 C36.50271012 29.66095981 29.1889394 29.57658525 21.875 29.5 C21.67197266 30.6446875 21.67197266 30.6446875 21.46484375 31.8125 C20.47748177 36.31120891 18.58312103 39.24518801 14.84375 41.9921875 C8.05066247 45.89600728 1.58725245 46.67195993 -6.125 45.5 C-12.71774658 43.38602148 -17.26843392 40.22264645 -21.125 34.5 C-23.42562049 27.59813854 -23.39271639 17.72967056 -21.2890625 10.7109375 C-20.08776808 8.62278143 -18.87662014 7.14730529 -17.125 5.5 C-16.63644531 4.98050781 -16.14789062 4.46101562 -15.64453125 3.92578125 C-10.9692291 0.0207806 -5.82984976 0.0468873 0 0 Z M-13.73828125 12.33203125 C-17.11803626 17.15889263 -17.87693958 20.67246828 -17.125 26.5 C-15.7601132 29.90241824 -15.7601132 29.90241824 -14.125 32.5 C-12.805 31.84 -11.485 31.18 -10.125 30.5 C-10.475625 29.530625 -10.82625 28.56125 -11.1875 27.5625 C-12.43837145 23.09380706 -12.43752335 18.9642514 -11.125 14.5 C-8.55964804 11.25955542 -7.038195 9.80439833 -3.125 8.5 C1.97762673 8.12202765 4.6672661 8.61469675 8.875 11.5 C9.535 11.5 10.195 11.5 10.875 11.5 C13.27300324 18.27083269 12.90409005 23.54311983 10.875 30.5 C11.535 30.5 12.195 30.5 12.875 30.5 C12.875 31.16 12.875 31.82 12.875 32.5 C16.00279105 31.83178312 16.00279105 31.83178312 17.0625 29.375 C18.76266686 23.35902497 18.15944728 18.77206374 15.21875 13.36328125 C12.33430915 9.36363507 8.49206297 7.03902099 3.875 5.5 C-3.66942061 4.73277079 -8.65799154 6.5628887 -13.73828125 12.33203125 Z M-6.125 17.5 C-7.37274386 19.32423512 -7.37274386 19.32423512 -7.125 21.5 C-5.69578214 24.85221388 -5.69578214 24.85221388 -3.125 27.5 C0.5731109 28.27043977 2.13855393 27.97208082 5.3125 25.9375 C7.18701155 23.48253455 7.18701155 23.48253455 6.9375 19.9375 C6.19117708 16.37732393 6.19117708 16.37732393 3.4375 14.5625 C-1.17495287 12.65001954 -2.58256655 14.23006143 -6.125 17.5 Z M22.875 21.5 C22.875 22.16 22.875 22.82 22.875 23.5 C23.65316574 23.50586624 24.43133148 23.51173248 25.233078 23.51777649 C32.57509174 23.57573738 39.91676743 23.64783308 47.25847912 23.73571491 C51.03273053 23.78039737 54.80687454 23.81965788 58.58129883 23.84643555 C62.22547178 23.87249018 65.86923095 23.91290709 69.51314735 23.96318626 C70.90171464 23.97984053 72.29035348 23.9913638 73.67900658 23.99761391 C75.6275102 24.00726972 77.57588242 24.03704261 79.52416992 24.06762695 C80.6322551 24.07873001 81.74034027 24.08983307 82.88200378 24.10127258 C86.25095625 24.55008495 88.15522521 25.49307783 90.875 27.5 C92.18668797 30.12337594 92.00453979 32.08875545 92.0078125 35.0234375 C92.00910156 36.126875 92.01039062 37.2303125 92.01171875 38.3671875 C92.00785156 39.52476563 92.00398438 40.68234375 92 41.875 C92.00386719 43.02484375 92.00773437 44.1746875 92.01171875 45.359375 C92.01042969 46.46539062 92.00914063 47.57140625 92.0078125 48.7109375 C92.00668457 49.72462402 92.00555664 50.73831055 92.00439453 51.78271484 C91.8878603 54.22993362 91.78343807 56.22531287 90.875 58.5 C87.65102808 59.57465731 85.20029214 59.66691803 81.8125 59.6875 C80.74902344 59.70167969 79.68554688 59.71585938 78.58984375 59.73046875 C75.875 59.5 75.875 59.5 73.875 57.5 C72.555 58.49 71.235 59.48 69.875 60.5 C70.54368314 63.61332248 70.54368314 63.61332248 72.9375 64.6875 C73.576875 64.955625 74.21625 65.22375 74.875 65.5 C75.37 64.51 75.37 64.51 75.875 63.5 C78.99927689 63.05905863 82.09320468 62.75934241 85.24023438 62.55273438 C88.72009673 62.20917025 90.54333357 61.82484581 93.07128906 59.34887695 C95.21765582 55.95879118 95.37771588 54.04729444 95.37109375 50.0625 C95.37206055 48.22558594 95.37206055 48.22558594 95.37304688 46.3515625 C95.35306641 45.08054687 95.33308594 43.80953125 95.3125 42.5 C95.31958984 41.22898437 95.32667969 39.95796875 95.33398438 38.6484375 C95.45732902 30.54124574 95.45732902 30.54124574 91.875 23.5 C88.4426447 21.23762701 85.50299073 21.25725585 81.45410156 21.27294922 C80.15305481 21.27310028 78.85200806 21.27325134 77.51153564 21.27340698 C76.09623053 21.28361954 74.68092699 21.29405152 73.265625 21.3046875 C71.81402786 21.30841929 70.3624282 21.31126548 68.91082764 21.31326294 C65.09675093 21.32088636 61.28282738 21.34052365 57.46881104 21.3626709 C53.57428051 21.38315722 49.67972516 21.39227061 45.78515625 21.40234375 C38.1483678 21.42377085 30.51170539 21.45789108 22.875 21.5 Z M-6.125 34.5 C-6.785 35.82 -7.445 37.14 -8.125 38.5 C-3.06367683 40.95397487 1.45961513 41.32225868 6.8125 39.5 C7.493125 39.17 8.17375 38.84 8.875 38.5 C8.215 37.18 7.555 35.86 6.875 34.5 C2.585 34.5 -1.705 34.5 -6.125 34.5 Z " fill="#091D47" transform="translate(22.125,-0.5)"/>
<path d="M0 0 C5.10092158 2.91955186 8.60115759 6.17847278 10.5 11.875 C10.77353832 14.80770806 10.77719904 17.7433996 10.8125 20.6875 C10.85600586 21.87956055 10.85600586 21.87956055 10.90039062 23.09570312 C10.95892897 28.53976923 10.11439249 31.56331764 6.5 35.875 C4.6484375 37.73828125 4.6484375 37.73828125 2.875 39.1875 C2.28460938 39.67863281 1.69421875 40.16976562 1.0859375 40.67578125 C-2.72497329 43.55743054 -6.66368828 43.09597271 -11.25 43.125 C-12.44882813 43.1559375 -12.44882813 43.1559375 -13.671875 43.1875 C-18.70222699 43.22059442 -22.17606392 42.72121647 -26.5 39.875 C-28.36328125 37.97265625 -28.36328125 37.97265625 -29.8125 35.9375 C-30.54919922 34.93396484 -30.54919922 34.93396484 -31.30078125 33.91015625 C-32.49760517 31.87906419 -33.06186872 30.1790551 -33.5 27.875 C-34.799375 28.8959375 -34.799375 28.8959375 -36.125 29.9375 C-39.5 31.875 -39.5 31.875 -42.75 31.875 C-45.5 30.875 -45.5 30.875 -46.671875 28.8125 C-47.08179688 27.8534375 -47.08179688 27.8534375 -47.5 26.875 C-48.12567871 26.88023682 -48.75135742 26.88547363 -49.39599609 26.89086914 C-52.22232057 26.91161618 -55.04862905 26.92465286 -57.875 26.9375 C-58.85984375 26.94587891 -59.8446875 26.95425781 -60.859375 26.96289062 C-62.27089844 26.96772461 -62.27089844 26.96772461 -63.7109375 26.97265625 C-65.01490479 26.98051147 -65.01490479 26.98051147 -66.34521484 26.98852539 C-68.5 26.875 -68.5 26.875 -70.5 25.875 C-71.77368421 18.69605263 -71.77368421 18.69605263 -70.5 14.875 C-68.04724859 13.6486243 -66.4494219 13.76084686 -63.7109375 13.77734375 C-62.76992188 13.78056641 -61.82890625 13.78378906 -60.859375 13.78710938 C-59.87453125 13.79548828 -58.8896875 13.80386719 -57.875 13.8125 C-56.38613281 13.81926758 -56.38613281 13.81926758 -54.8671875 13.82617188 C-52.4113984 13.83797855 -49.95572896 13.854446 -47.5 13.875 C-47.22800781 13.235625 -46.95601562 12.59625 -46.67578125 11.9375 C-45.5 9.875 -45.5 9.875 -42.6875 8.875 C-38.65423643 8.875 -37.33541482 10.12297973 -34.5 12.875 C-34.18289062 12.21113281 -33.86578125 11.54726562 -33.5390625 10.86328125 C-30.41641651 4.95440693 -27.57573685 1.2818892 -21.33984375 -1.34375 C-13.97763292 -3.36911749 -6.97295745 -3.19593883 0 0 Z M-25.08203125 8.59375 C-28.75649968 13.59187421 -30.01728442 17.56413011 -29.5 23.875 C-27.54893528 30.06904282 -24.17666033 33.80617899 -18.5 36.875 C-13.70890166 38.47203278 -9.72969825 38.89846805 -5.1171875 36.78125 C0.09548071 33.54698722 3.23062506 30.59777158 5.5 24.875 C6.29044924 18.65021223 5.251065 13.97819308 1.5 8.875 C-2.48964141 5.2117838 -6.22104952 3.09842652 -11.6875 2.5625 C-17.07749237 3.00430265 -21.35615642 4.54588599 -25.08203125 8.59375 Z M-41.5 16.875 C-41.83 17.535 -42.16 18.195 -42.5 18.875 C-50.09 19.205 -57.68 19.535 -65.5 19.875 C-65.5 20.535 -65.5 21.195 -65.5 21.875 C-64.81897217 21.90005615 -64.13794434 21.9251123 -63.4362793 21.95092773 C-60.35316245 22.06690952 -57.27034954 22.18962616 -54.1875 22.3125 C-52.5797168 22.37147461 -52.5797168 22.37147461 -50.93945312 22.43164062 C-49.39741211 22.49448242 -49.39741211 22.49448242 -47.82421875 22.55859375 C-46.87635498 22.59525146 -45.92849121 22.63190918 -44.9519043 22.66967773 C-42.5 22.875 -42.5 22.875 -39.5 23.875 C-38.51 23.215 -37.52 22.555 -36.5 21.875 C-37.29117904 19.87516466 -37.29117904 19.87516466 -38.5 17.875 C-39.49 17.545 -40.48 17.215 -41.5 16.875 Z " fill="#091E48" transform="translate(111.5,79.125)"/>
<path d="M0 0 C1.54204102 -0.04253906 1.54204102 -0.04253906 3.11523438 -0.0859375 C10.60539046 -0.10535463 10.60539046 -0.10535463 14.6484375 2.8359375 C16.4375 5.5 16.4375 5.5 16.5 8.625 C15.23021909 12.06087777 14.63544629 12.76425621 11.4375 14.5 C8.36113106 15.00433501 5.3003015 15.10238433 2.1875 15.1875 C1.34703125 15.22166016 0.5065625 15.25582031 -0.359375 15.29101562 C-2.42662204 15.37323568 -4.49453874 15.43830157 -6.5625 15.5 C-8.3305198 19.0360396 -7.74714913 23.10571255 -7.75 27 C-7.76224609 27.88042969 -7.77449219 28.76085937 -7.78710938 29.66796875 C-7.78904297 30.50972656 -7.79097656 31.35148437 -7.79296875 32.21875 C-7.79913208 33.37793945 -7.79913208 33.37793945 -7.80541992 34.56054688 C-7.73426616 36.73739713 -7.73426616 36.73739713 -5.5625 38.5 C-3.49375966 39.1425235 -3.49375966 39.1425235 -1.5625 39.5 C-1.2325 38.18 -0.9025 36.86 -0.5625 35.5 C1.875 34.5625 1.875 34.5625 5.4375 34.5 C9.52794909 36.99400916 13.0574309 40.1199309 16.4375 43.5 C16.8203125 45.859375 16.8203125 45.859375 16.4375 48.5 C13.10458075 52.67725879 9.10256925 55.9141423 4.0625 57.6875 C1.4375 57.5 1.4375 57.5 -0.4375 56.1875 C-1.5625 54.5 -1.5625 54.5 -1.5625 52.5 C-2.29855469 52.53480469 -3.03460937 52.56960937 -3.79296875 52.60546875 C-13.715463 52.88072949 -13.715463 52.88072949 -17.5625 49.5 C-21.04508 46.00768305 -22.02978293 43.51617032 -22.11828613 38.57299805 C-22.11018921 37.82703369 -22.10209229 37.08106934 -22.09375 36.3125 C-22.0975769 35.53237549 -22.10140381 34.75225098 -22.10534668 33.94848633 C-22.10806005 32.30451156 -22.10073905 30.66049319 -22.08398438 29.01660156 C-22.06256386 26.50747977 -22.08380273 24.00122078 -22.109375 21.4921875 C-22.10673162 19.89061871 -22.10160642 18.2890517 -22.09375 16.6875 C-22.10184692 15.94153564 -22.10994385 15.19557129 -22.11828613 14.42700195 C-22.02989572 9.4901294 -21.07143608 6.96740782 -17.5625 3.5 C-12.11567608 -0.33887435 -6.41684777 -0.01615317 0 0 Z M-14.5625 9.5 C-17.92573236 14.54484854 -16.88982437 20.45118357 -16.875 26.375 C-16.89111328 27.65503906 -16.90722656 28.93507813 -16.92382812 30.25390625 C-16.92447266 31.48753906 -16.92511719 32.72117187 -16.92578125 33.9921875 C-16.92876221 35.11995605 -16.93174316 36.24772461 -16.93481445 37.40966797 C-16.52009478 40.85197721 -15.59577485 42.72091008 -13.5625 45.5 C-9.58954849 48.32062358 -4.94696969 47.9261873 -0.2421875 48.15625 C2.4375 48.5 2.4375 48.5 4.4375 50.5 C6.0875 48.85 7.7375 47.2 9.4375 45.5 C6.76502366 43.15712582 6.76502366 43.15712582 3.4375 42.5 C3.1075 43.16 2.7775 43.82 2.4375 44.5 C-8.31353676 45.06364659 -8.31353676 45.06364659 -12.5625 41.5 C-13.87418797 38.87662406 -13.69203979 36.91124455 -13.6953125 33.9765625 C-13.69660156 32.873125 -13.69789062 31.7696875 -13.69921875 30.6328125 C-13.69535156 29.47523437 -13.69148437 28.31765625 -13.6875 27.125 C-13.69136719 25.97515625 -13.69523438 24.8253125 -13.69921875 23.640625 C-13.69792969 22.53460938 -13.69664063 21.42859375 -13.6953125 20.2890625 C-13.69418457 19.27537598 -13.69305664 18.26168945 -13.69189453 17.21728516 C-13.5753603 14.77006638 -13.47093807 12.77468713 -12.5625 10.5 C-9.83748092 9.59166031 -7.94016029 9.31640015 -5.11328125 9.18359375 C-3.84194336 9.12075195 -3.84194336 9.12075195 -2.54492188 9.05664062 C-1.22331055 8.99766602 -1.22331055 8.99766602 0.125 8.9375 C1.46401367 8.87272461 1.46401367 8.87272461 2.83007812 8.80664062 C5.03240108 8.70064647 7.23483473 8.59857949 9.4375 8.5 C9.4375 7.84 9.4375 7.18 9.4375 6.5 C6.37446422 6.41884007 3.31359185 6.35942591 0.25 6.3125 C-0.61431641 6.28736328 -1.47863281 6.26222656 -2.36914062 6.23632812 C-7.25304544 6.18019129 -10.64213204 6.23429543 -14.5625 9.5 Z " fill="#091D45" transform="translate(21.5625,53.5)"/>
<path d="M0 0 C0.46277344 0.49234131 0.92554688 0.98468262 1.40234375 1.49194336 C3.50438413 3.47609731 4.70740131 3.39357304 7.5625 3.44140625 C8.88121094 3.48104492 8.88121094 3.48104492 10.2265625 3.52148438 C11.59941406 3.54178711 11.59941406 3.54178711 13 3.5625 C14.81268161 3.59696648 16.62523138 3.63958919 18.4375 3.69140625 C19.64212891 3.70989624 19.64212891 3.70989624 20.87109375 3.72875977 C23 4 23 4 26 6 C26.83572001 9.47145233 27.35698727 11.95649876 26.1875 15.375 C25 17 25 17 23 18 C21.51460006 18.11624087 20.02474591 18.17857125 18.53515625 18.2109375 C17.65279297 18.23929688 16.77042969 18.26765625 15.86132812 18.296875 C13.99954791 18.34884374 12.13753758 18.39314923 10.27539062 18.4296875 C8.94991211 18.47609375 8.94991211 18.47609375 7.59765625 18.5234375 C6.78820557 18.54325684 5.97875488 18.56307617 5.14477539 18.58349609 C2.52619803 19.09200981 1.76583721 20.06960113 0 22 C-2.6875 22.625 -2.6875 22.625 -6 22 C-10.16986463 19.34228408 -13.30313298 16.52043714 -15.375 12 C-14.81297805 7.50382443 -12.25769376 5.00948852 -9 2 C-5.53076119 -0.31282587 -4.07794425 -0.42478586 0 0 Z M-4 7 C-5.32 7.99 -6.64 8.98 -8 10 C-7.33131686 13.11332248 -7.33131686 13.11332248 -4.9375 14.1875 C-4.298125 14.455625 -3.65875 14.72375 -3 15 C-2.67 14.34 -2.34 13.68 -2 13 C5.59 12.67 13.18 12.34 21 12 C21 11.34 21 10.68 21 10 C19.97060303 9.970271 19.97060303 9.970271 18.92041016 9.93994141 C15.82154221 9.84489055 12.72336706 9.73513153 9.625 9.625 C8.00464844 9.57859375 8.00464844 9.57859375 6.3515625 9.53125 C4.8046875 9.47324219 4.8046875 9.47324219 3.2265625 9.4140625 C2.27346191 9.3826416 1.32036133 9.3512207 0.33837891 9.31884766 C-2 9 -2 9 -4 7 Z " fill="#091C44" transform="translate(55,50)"/>
<path d="M0 0 C1.12728516 0.12375 1.12728516 0.12375 2.27734375 0.25 C3.08984375 1.9375 3.08984375 1.9375 3.27734375 4.25 C1.33984375 6.5 1.33984375 6.5 -0.0546875 7.75 C-2.08535181 9.57617118 -3.9503268 11.53603606 -5.84765625 13.5 C-8.25962833 15.99643803 -9.38627361 17.13787245 -12.72265625 18.25 C-14.546875 17.03515625 -14.546875 17.03515625 -16.41015625 15.3125 C-17.03277344 14.74660156 -17.65539062 14.18070313 -18.296875 13.59765625 C-18.76738281 13.15292969 -19.23789063 12.70820312 -19.72265625 12.25 C-19.39265625 10.93 -19.06265625 9.61 -18.72265625 8.25 C-15.72265625 8.25 -12.72265625 8.25 -9.72265625 8.25 C-7.78326187 6.30626693 -6.24529038 4.19672217 -4.6015625 2 C-2.72265625 0.25 -2.72265625 0.25 0 0 Z " fill="#081F45" transform="translate(107.72265625,90.75)"/>
<path d="M0 0 C-1.55603771 3.81936528 -3.95604931 6.26044438 -7 9 C-7.66 9 -8.32 9 -9 9 C-7.45665977 5.21180126 -4.44676575 0 0 0 Z " fill="#051230" transform="translate(11,2)"/>
<path d="M0 0 C0.66 0.33 1.32 0.66 2 1 C-0.31 3.31 -2.62 5.62 -5 8 C-5 5 -5 5 -2.5 2.3125 C-1.675 1.549375 -0.85 0.78625 0 0 Z " fill="#06122C" transform="translate(86,80)"/>
</svg>
