<?xml version="1.0" encoding="UTF-8"?>
<svg version="1.1" xmlns="http://www.w3.org/2000/svg" width="128" height="128">
<path d="M0 0 C21.12 0 42.24 0 64 0 C64 1.98 64 3.96 64 6 C44.86 6 25.72 6 6 6 C6 39.66 6 73.32 6 108 C11.28 108 16.56 108 22 108 C22 99.42 22 90.84 22 82 C33.22 82 44.44 82 56 82 C56 90.58 56 99.16 56 108 C61.28 108 66.56 108 72 108 C71.98063369 100.3639777 71.92907898 92.72911651 71.84741211 85.09350586 C71.82418595 82.49493737 71.80982565 79.89627413 71.80444336 77.29760742 C71.79518804 73.56629058 71.75426872 69.83647376 71.70703125 66.10546875 C71.7109639 64.93976852 71.71489655 63.7740683 71.71894836 62.57304382 C71.69930527 61.49214981 71.67966217 60.4112558 71.65942383 59.29760742 C71.64943108 57.86864388 71.64943108 57.86864388 71.63923645 56.41081238 C71.10737233 53.2745047 71.10737233 53.2745047 66 51 C65.67 57.93 65.34 64.86 65 72 C57.74 72 50.48 72 43 72 C43 64.08 43 56.16 43 48 C49.6 48 56.2 48 63 48 C61.68 46.02 60.36 44.04 59 42 C59 41.34 59 40.68 59 40 C53.72 40 48.44 40 43 40 C43 32.08 43 24.16 43 16 C45.495625 16.020625 47.99125 16.04125 50.5625 16.0625 C56.377594 15.89409316 56.377594 15.89409316 61.3046875 13.10546875 C62.39253083 11.53616366 63.43134048 9.93171023 64.41796875 8.296875 C67.57243918 3.71705127 72.86180207 1.71273264 78 0 C88.76128502 -0.78709639 96.24006019 0.12311744 105.25 6.1875 C112.09890286 13.19205975 114.28792334 20.53081199 114.3190918 30.16186523 C114.21120643 35.94800112 113.08125318 40.14779399 110 45 C109.34 46.051875 108.68 47.10375 108 48.1875 C103.08828049 53.50108747 96.09283036 56.97239314 88.8828125 57.375 C85.24405469 57.43392379 81.62960372 57.26775765 78 57 C78 59.64 78 62.28 78 65 C79.98 65.33 81.96 65.66 84 66 C88.62 67.98 93.24 69.96 98 72 C98 85.86 98 99.72 98 114 C65.66 114 33.32 114 0 114 C0 76.38 0 38.76 0 0 Z M84 10 C82.70366379 11.06645115 82.70366379 11.06645115 82.9375 13.5625 C82.958125 14.366875 82.97875 15.17125 83 16 C82.38125 16.268125 81.7625 16.53625 81.125 16.8125 C78.7004767 17.95556848 78.7004767 17.95556848 77 21 C77.18599856 23.97597691 77.50464891 26.18412761 79.0625 28.75 C82.1503072 30.74213367 85.41895708 31.23682692 89 32 C88.67 33.32 88.34 34.64 88 36 C84.97580475 35.41196203 81.98241547 34.77321882 79 34 C78.67 34.99 78.34 35.98 78 37 C79.23513282 39.23024131 79.23513282 39.23024131 81 41 C81.66 41 82.32 41 83 41 C83 42.65 83 44.3 83 46 C84.94603274 46.59070014 84.94603274 46.59070014 87 47 C88.29633621 45.93354885 88.29633621 45.93354885 88.0625 43.4375 C88.041875 42.633125 88.02125 41.82875 88 41 C88.61875 40.731875 89.2375 40.46375 89.875 40.1875 C92.2995233 39.04443152 92.2995233 39.04443152 94 36 C93.81400144 33.02402309 93.49535109 30.81587239 91.9375 28.25 C88.8496928 26.25786633 85.58104292 25.76317308 82 25 C82.33 23.68 82.66 22.36 83 21 C84.65 20.67 86.3 20.34 88 20 C88.33 20.99 88.66 21.98 89 23 C89.99 23 90.98 23 92 23 C92.77242269 21.16299211 92.77242269 21.16299211 93 19 C91.77045984 17.18700508 91.77045984 17.18700508 90 16 C89.34 16 88.68 16 88 16 C88 14.35 88 12.7 88 11 C86.05396726 10.40929986 86.05396726 10.40929986 84 10 Z M49 22 C49 25.96 49 29.92 49 34 C51.64 34 54.28 34 57 34 C57 30.04 57 26.08 57 22 C54.36 22 51.72 22 49 22 Z M49 54 C49 57.96 49 61.92 49 66 C52.3 66 55.6 66 59 66 C59 62.04 59 58.08 59 54 C55.7 54 52.4 54 49 54 Z M78 72 C78 83.88 78 95.76 78 108 C82.62 108 87.24 108 92 108 C92 97.77 92 87.54 92 77 C87.38 75.35 82.76 73.7 78 72 Z M28 88 C28 89.98 28 91.96 28 94 C35.26 94 42.52 94 50 94 C50 92.02 50 90.04 50 88 C42.74 88 35.48 88 28 88 Z M28 100 C28 102.64 28 105.28 28 108 C30.64 108 33.28 108 36 108 C36 105.36 36 102.72 36 100 C33.36 100 30.72 100 28 100 Z M42 100 C42 102.64 42 105.28 42 108 C44.64 108 47.28 108 50 108 C50 105.36 50 102.72 50 100 C47.36 100 44.72 100 42 100 Z " fill="#0B2354" transform="translate(7,7)"/>
<path d="M0 0 C7.26 0 14.52 0 22 0 C22 7.92 22 15.84 22 24 C14.74 24 7.48 24 0 24 C0 16.08 0 8.16 0 0 Z M6 6 C6 9.96 6 13.92 6 18 C9.3 18 12.6 18 16 18 C16 14.04 16 10.08 16 6 C12.7 6 9.4 6 6 6 Z " fill="#0B2454" transform="translate(20,55)"/>
<path d="M0 0 C7.26 0 14.52 0 22 0 C22 7.92 22 15.84 22 24 C14.74 24 7.48 24 0 24 C0 16.08 0 8.16 0 0 Z M6 6 C6 9.96 6 13.92 6 18 C9.3 18 12.6 18 16 18 C16 14.04 16 10.08 16 6 C12.7 6 9.4 6 6 6 Z " fill="#0B2454" transform="translate(20,23)"/>
</svg>
