<?xml version="1.0" encoding="UTF-8"?>
<svg version="1.1" xmlns="http://www.w3.org/2000/svg" width="92" height="128">
<path d="M0 0 C0.99 0.495 0.99 0.495 2 1 C-6.41687708 11.79519304 -15.01024082 22.43693043 -23.66601562 33.04101562 C-29.88628628 40.6646846 -36.06155194 48.31595824 -42.12207031 56.06738281 C-46.33326454 61.44579353 -50.66052978 66.72470154 -55 72 C-57.17093755 74.64236121 -59.33738636 77.28832164 -61.5 79.9375 C-62.33084106 80.95432861 -62.33084106 80.95432861 -63.1784668 81.99169922 C-67.39578046 87.18348444 -71.39671693 92.50154198 -75.29296875 97.9375 C-75.85628906 98.618125 -76.41960937 99.29875 -77 100 C-77.66 100 -78.32 100 -79 100 C-77.56656038 95.35736719 -75.67465918 91.05073215 -73.5625 86.6875 C-68.59388955 76.15512098 -63.27778968 64.59949325 -67.4375 52.875 C-70.3262123 46.62285694 -74.76658896 41.07427224 -79.74609375 36.33984375 C-81 35 -81 35 -81 33 C-77.97733822 34.123207 -75.11406674 35.4231521 -72.2578125 36.91015625 C-71.58363281 37.26013672 -70.90945312 37.61011719 -70.21484375 37.97070312 C-68.82613463 38.6962063 -67.44066796 39.42795142 -66.05859375 40.16601562 C-61.01723627 42.76351505 -56.33420611 44.62749014 -50.55078125 43.5390625 C-30.98763387 35.54992378 -13.36667166 15.92139388 0 0 Z " fill="#000000" transform="translate(90,0)"/>
<path d="M0 0 C0.66 0 1.32 0 2 0 C0.56656038 4.64263281 -1.32534082 8.94926785 -3.4375 13.3125 C-8.40611045 23.84487902 -13.72221032 35.40050675 -9.5625 47.125 C-6.6737877 53.37714306 -2.23341104 58.92572776 2.74609375 63.66015625 C4 65 4 65 4 67 C0.97733822 65.876793 -1.88593326 64.5768479 -4.7421875 63.08984375 C-5.41636719 62.73986328 -6.09054688 62.38988281 -6.78515625 62.02929688 C-8.17386537 61.3037937 -9.55933204 60.57204858 -10.94140625 59.83398438 C-15.98276373 57.23648495 -20.66579389 55.37250986 -26.44921875 56.4609375 C-45.94230962 64.42146676 -63.64443058 84.01093802 -77 100 C-77.66 99.67 -78.32 99.34 -79 99 C-70.58312292 88.20480696 -61.98975918 77.56306957 -53.33398438 66.95898438 C-47.11371372 59.3353154 -40.93844806 51.68404176 -34.87792969 43.93261719 C-30.66673546 38.55420647 -26.33947022 33.27529846 -22 28 C-19.82906245 25.35763879 -17.66261364 22.71167836 -15.5 20.0625 C-14.94610596 19.38461426 -14.39221191 18.70672852 -13.8215332 18.00830078 C-9.60421954 12.81651556 -5.60328307 7.49845802 -1.70703125 2.0625 C-1.14371094 1.381875 -0.58039063 0.70125 0 0 Z " fill="#000000" transform="translate(79,28)"/>
</svg>
