<?xml version="1.0" encoding="UTF-8"?>
<svg version="1.1" xmlns="http://www.w3.org/2000/svg" width="128" height="128">
<path d="M0 0 C2.28101091 1.79222286 3.36129968 3.54194953 5 6 C6.794375 6.804375 6.794375 6.804375 8.625 7.625 C15.26813789 10.80741396 20.36656282 16.48849994 23 23.375 C24.22626225 27.76332214 24.16477787 31.99510097 23.91015625 36.51953125 C24.00905977 39.25012839 24.71073904 40.63147133 26 43 C26.4375 46.5 26.4375 46.5 26 50 C22.42374655 54.11811004 19.19555103 54.27079986 14 55 C11.98079663 56.30406884 9.98075027 57.63823419 8 59 C-0.13485974 62.12879221 -8.0196264 61.85011185 -16.1171875 58.859375 C-18 58 -18 58 -20 56.4375 C-22.76438581 54.4505977 -25.55397173 54.16326933 -28.87890625 53.625 C-31.39380585 52.88396144 -32.42889588 52.08492433 -34 50 C-34.32241258 46.51794416 -34.39936349 43.92352808 -33 40.6875 C-31.94920357 37.86348459 -31.95707495 36.22481997 -32.0625 33.25 C-32.18179381 24.30296445 -29.36790748 18.50170703 -23.265625 12.00390625 C-20.37808032 9.44992277 -17.38037349 7.75832314 -13.8828125 6.16796875 C-11.58906459 4.74508364 -11.06518127 3.433304 -10 1 C-6.61147003 -1.54139747 -3.96754849 -1.09740703 0 0 Z M-18 13 C-22.85606142 18.00240848 -26.15948456 22.21309932 -28 29 C-27.67 29.99 -27.34 30.98 -27 32 C-25.29949343 29.21605957 -23.61688375 26.42172475 -21.9375 23.625 C-21.45216797 22.8309375 -20.96683594 22.036875 -20.46679688 21.21875 C-20.01240234 20.45820312 -19.55800781 19.69765625 -19.08984375 18.9140625 C-18.66566162 18.2123291 -18.24147949 17.5105957 -17.80444336 16.78759766 C-17.53897705 16.19769043 -17.27351074 15.6077832 -17 15 C-17.33 14.34 -17.66 13.68 -18 13 Z M9 13 C10.59623144 17.39383706 12.78024333 21.28995807 15.125 25.3125 C15.49753906 25.95767578 15.87007812 26.60285156 16.25390625 27.26757812 C17.16632213 28.84675945 18.08275509 30.42361864 19 32 C20.40673513 27.77979461 19.05326839 25.51807151 17.390625 21.51953125 C15.31399281 17.75709371 12.49852031 15.41751684 9 13 Z M-14 54 C-10.87593617 57.12406383 -8.52487407 56.97460287 -4.125 57.1875 C-0.44667947 57.1530588 2.56709881 56.37316047 6 55 C6 54.67 6 54.34 6 54 C-0.6 54 -7.2 54 -14 54 Z " fill="#FBFBFC" transform="translate(68,31)"/>
<path d="M0 0 C0.78890625 -0.00386719 1.5778125 -0.00773438 2.390625 -0.01171875 C3.21046875 -0.00011719 4.0303125 0.01148438 4.875 0.0234375 C6.10476562 0.00603516 6.10476562 0.00603516 7.359375 -0.01171875 C8.54273437 -0.00591797 8.54273437 -0.00591797 9.75 0 C10.46929687 0.00338379 11.18859375 0.00676758 11.9296875 0.01025391 C14.44921891 0.51302185 15.34744038 1.35871712 16.875 3.3984375 C17.0625 6.5859375 17.0625 6.5859375 16.875 9.3984375 C18.44977503 9.98447019 20.03536205 10.54150947 21.625 11.0859375 C22.50671875 11.39917969 23.3884375 11.71242188 24.296875 12.03515625 C26.92681058 12.70542201 26.92681058 12.70542201 28.890625 10.98046875 C29.54546875 10.45839844 30.2003125 9.93632812 30.875 9.3984375 C33.2265625 8.86328125 33.2265625 8.86328125 35.875 9.3984375 C38.24791835 11.19137457 40.18145613 12.86996364 42.25 14.9609375 C43.08724609 15.73147461 43.08724609 15.73147461 43.94140625 16.51757812 C45.51724473 18.08368921 46.76906579 19.47001345 47.875 21.3984375 C47.84756131 25.74747021 47.28680273 27.78073341 44.875 31.3984375 C45.28656563 33.7235084 45.28656563 33.7235084 46.25 36.0859375 C46.54648438 36.89417969 46.84296875 37.70242187 47.1484375 38.53515625 C47.38820313 39.15003906 47.62796875 39.76492187 47.875 40.3984375 C48.803125 40.3365625 49.73125 40.2746875 50.6875 40.2109375 C53.875 40.3984375 53.875 40.3984375 55.54931641 41.65234375 C57.16378962 43.77881013 57.26098675 44.87676455 57.2734375 47.5234375 C57.27730469 48.31234375 57.28117187 49.10125 57.28515625 49.9140625 C57.27355469 50.73390625 57.26195313 51.55375 57.25 52.3984375 C57.26160156 53.21828125 57.27320312 54.038125 57.28515625 54.8828125 C57.28128906 55.67171875 57.27742188 56.460625 57.2734375 57.2734375 C57.27005371 57.99273437 57.26666992 58.71203125 57.26318359 59.453125 C56.76041565 61.97265641 55.91472038 62.87087788 53.875 64.3984375 C50.6875 64.5859375 50.6875 64.5859375 47.875 64.3984375 C47.28896731 65.97321253 46.73192803 67.55879955 46.1875 69.1484375 C45.87425781 70.03015625 45.56101562 70.911875 45.23828125 71.8203125 C44.56801549 74.45024808 44.56801549 74.45024808 46.29296875 76.4140625 C46.81503906 77.06890625 47.33710937 77.72375 47.875 78.3984375 C48.41015625 80.75 48.41015625 80.75 47.875 83.3984375 C46.08206293 85.77135585 44.40347386 87.70489363 42.3125 89.7734375 C41.79880859 90.33160156 41.28511719 90.88976562 40.75585938 91.46484375 C39.18974829 93.04068223 37.80342405 94.29250329 35.875 95.3984375 C31.52596729 95.37099881 29.49270409 94.81024023 25.875 92.3984375 C23.5499291 92.81000313 23.5499291 92.81000313 21.1875 93.7734375 C20.37925781 94.06992188 19.57101563 94.36640625 18.73828125 94.671875 C18.12339844 94.91164063 17.50851563 95.15140625 16.875 95.3984375 C16.936875 96.3265625 16.99875 97.2546875 17.0625 98.2109375 C16.875 101.3984375 16.875 101.3984375 15.62109375 103.07275391 C13.49462737 104.68722712 12.39667295 104.78442425 9.75 104.796875 C8.96109375 104.80074219 8.1721875 104.80460937 7.359375 104.80859375 C6.12960938 104.79119141 6.12960938 104.79119141 4.875 104.7734375 C3.64523438 104.79083984 3.64523438 104.79083984 2.390625 104.80859375 C1.60171875 104.80472656 0.8128125 104.80085938 0 104.796875 C-0.71929687 104.79349121 -1.43859375 104.79010742 -2.1796875 104.78662109 C-4.69921891 104.28385315 -5.59744038 103.43815788 -7.125 101.3984375 C-7.3125 98.2109375 -7.3125 98.2109375 -7.125 95.3984375 C-8.69977503 94.81240481 -10.28536205 94.25536553 -11.875 93.7109375 C-12.75671875 93.39769531 -13.6384375 93.08445312 -14.546875 92.76171875 C-17.17681058 92.09145299 -17.17681058 92.09145299 -19.140625 93.81640625 C-19.79546875 94.33847656 -20.4503125 94.86054687 -21.125 95.3984375 C-23.4765625 95.93359375 -23.4765625 95.93359375 -26.125 95.3984375 C-28.49791835 93.60550043 -30.43145613 91.92691136 -32.5 89.8359375 C-33.05816406 89.32224609 -33.61632813 88.80855469 -34.19140625 88.27929688 C-35.76724473 86.71318579 -37.01906579 85.32686155 -38.125 83.3984375 C-38.09756131 79.04940479 -37.53680273 77.01614159 -35.125 73.3984375 C-35.53656563 71.0733666 -35.53656563 71.0733666 -36.5 68.7109375 C-36.79648437 67.90269531 -37.09296875 67.09445313 -37.3984375 66.26171875 C-37.63820313 65.64683594 -37.87796875 65.03195313 -38.125 64.3984375 C-39.053125 64.4603125 -39.98125 64.5221875 -40.9375 64.5859375 C-44.125 64.3984375 -44.125 64.3984375 -45.79931641 63.14453125 C-47.41378962 61.01806487 -47.51098675 59.92011045 -47.5234375 57.2734375 C-47.52730469 56.48453125 -47.53117187 55.695625 -47.53515625 54.8828125 C-47.52355469 54.06296875 -47.51195312 53.243125 -47.5 52.3984375 C-47.51160156 51.57859375 -47.52320313 50.75875 -47.53515625 49.9140625 C-47.52935547 48.73070313 -47.52935547 48.73070313 -47.5234375 47.5234375 C-47.52005371 46.80414063 -47.51666992 46.08484375 -47.51318359 45.34375 C-47.01041565 42.82421859 -46.16472038 41.92599712 -44.125 40.3984375 C-40.9375 40.2109375 -40.9375 40.2109375 -38.125 40.3984375 C-37.53896731 38.82366247 -36.98192803 37.23807545 -36.4375 35.6484375 C-36.12425781 34.76671875 -35.81101562 33.885 -35.48828125 32.9765625 C-34.81801549 30.34662692 -34.81801549 30.34662692 -36.54296875 28.3828125 C-37.06503906 27.72796875 -37.58710937 27.073125 -38.125 26.3984375 C-38.66015625 24.046875 -38.66015625 24.046875 -38.125 21.3984375 C-36.33206293 19.02551915 -34.65347386 17.09198137 -32.5625 15.0234375 C-32.04880859 14.46527344 -31.53511719 13.90710937 -31.00585938 13.33203125 C-29.43974829 11.75619277 -28.05342405 10.50437171 -26.125 9.3984375 C-21.77596729 9.42587619 -19.74270409 9.98663477 -16.125 12.3984375 C-13.7999291 11.98687187 -13.7999291 11.98687187 -11.4375 11.0234375 C-10.62925781 10.72695313 -9.82101563 10.43046875 -8.98828125 10.125 C-8.37339844 9.88523437 -7.75851563 9.64546875 -7.125 9.3984375 C-7.186875 8.4703125 -7.24875 7.5421875 -7.3125 6.5859375 C-7.125 3.3984375 -7.125 3.3984375 -5.87109375 1.72412109 C-3.74462737 0.10964788 -2.64667295 0.01245075 0 0 Z M-3.125 5.3984375 C-3.49260731 7.72661714 -3.82741581 10.060276 -4.125 12.3984375 C-5.70699631 13.04753904 -7.29065724 13.69258444 -8.875 14.3359375 C-9.75671875 14.69558594 -10.6384375 15.05523437 -11.546875 15.42578125 C-15.9979535 17.10505178 -15.9979535 17.10505178 -18.125 17.3984375 C-20.375 15.4609375 -20.375 15.4609375 -22.125 13.3984375 C-25.57701639 14.87565172 -27.77461936 16.83637751 -30.375 19.5234375 C-31.08140625 20.24789063 -31.7878125 20.97234375 -32.515625 21.71875 C-33.04671875 22.27304687 -33.5778125 22.82734375 -34.125 23.3984375 C-33.83625 23.9759375 -33.5475 24.5534375 -33.25 25.1484375 C-32.87875 25.8909375 -32.5075 26.6334375 -32.125 27.3984375 C-31.71636719 28.0584375 -31.30773438 28.7184375 -30.88671875 29.3984375 C-30.125 31.3984375 -30.125 31.3984375 -30.76953125 33.3984375 C-31.34767578 34.3884375 -31.34767578 34.3884375 -31.9375 35.3984375 C-33.46595015 38.06931285 -34.4976031 40.37613844 -35.125 43.3984375 C-36.259375 43.5428125 -37.39375 43.6871875 -38.5625 43.8359375 C-41.93277201 44.01015228 -41.93277201 44.01015228 -43.125 45.3984375 C-43.22409302 47.73003805 -43.25470504 50.06473692 -43.25 52.3984375 C-43.25257812 53.6771875 -43.25515625 54.9559375 -43.2578125 56.2734375 C-43.48360893 59.26530994 -43.48360893 59.26530994 -42.125 60.3984375 C-39.79682036 60.76604481 -37.4631615 61.10085331 -35.125 61.3984375 C-34.47589846 62.98043381 -33.83085306 64.56409474 -33.1875 66.1484375 C-32.82785156 67.03015625 -32.46820313 67.911875 -32.09765625 68.8203125 C-30.41838572 73.271391 -30.41838572 73.271391 -30.125 75.3984375 C-32.0625 77.6484375 -32.0625 77.6484375 -34.125 79.3984375 C-32.64778578 82.85045389 -30.68705999 85.04805686 -28 87.6484375 C-26.91332031 88.70804688 -26.91332031 88.70804688 -25.8046875 89.7890625 C-24.97324219 90.58570312 -24.97324219 90.58570312 -24.125 91.3984375 C-23.5475 91.1096875 -22.97 90.8209375 -22.375 90.5234375 C-21.6325 90.1521875 -20.89 89.7809375 -20.125 89.3984375 C-19.465 88.98980469 -18.805 88.58117187 -18.125 88.16015625 C-16.125 87.3984375 -16.125 87.3984375 -14.125 88.04296875 C-13.465 88.42839844 -12.805 88.81382813 -12.125 89.2109375 C-9.45412465 90.73938765 -7.14729906 91.7710406 -4.125 92.3984375 C-3.980625 93.5328125 -3.83625 94.6671875 -3.6875 95.8359375 C-3.51328522 99.20620951 -3.51328522 99.20620951 -2.125 100.3984375 C0.20660055 100.49753052 2.54129942 100.52814254 4.875 100.5234375 C6.15375 100.52601562 7.4325 100.52859375 8.75 100.53125 C11.74187244 100.75704643 11.74187244 100.75704643 12.875 99.3984375 C13.24260731 97.07025786 13.57741581 94.736599 13.875 92.3984375 C15.45699631 91.74933596 17.04065724 91.10429056 18.625 90.4609375 C19.94757813 89.92146484 19.94757813 89.92146484 21.296875 89.37109375 C25.7479535 87.69182322 25.7479535 87.69182322 27.875 87.3984375 C30.125 89.3359375 30.125 89.3359375 31.875 91.3984375 C35.32701639 89.92122328 37.52461936 87.96049749 40.125 85.2734375 C41.18460938 84.18675781 41.18460938 84.18675781 42.265625 83.078125 C42.79671875 82.52382812 43.3278125 81.96953125 43.875 81.3984375 C43.58625 80.8209375 43.2975 80.2434375 43 79.6484375 C42.443125 78.5346875 42.443125 78.5346875 41.875 77.3984375 C41.46636719 76.7384375 41.05773437 76.0784375 40.63671875 75.3984375 C39.875 73.3984375 39.875 73.3984375 40.51953125 71.3984375 C40.90496094 70.7384375 41.29039063 70.0784375 41.6875 69.3984375 C43.21595015 66.72756215 44.2476031 64.42073656 44.875 61.3984375 C46.009375 61.2540625 47.14375 61.1096875 48.3125 60.9609375 C51.68277201 60.78672272 51.68277201 60.78672272 52.875 59.3984375 C52.97409302 57.06683695 53.00470504 54.73213808 53 52.3984375 C53.00257812 51.1196875 53.00515625 49.8409375 53.0078125 48.5234375 C53.23360893 45.53156506 53.23360893 45.53156506 51.875 44.3984375 C49.54682036 44.03083019 47.2131615 43.69602169 44.875 43.3984375 C44.22589846 41.81644119 43.58085306 40.23278026 42.9375 38.6484375 C42.57785156 37.76671875 42.21820313 36.885 41.84765625 35.9765625 C40.16838572 31.525484 40.16838572 31.525484 39.875 29.3984375 C41.8125 27.1484375 41.8125 27.1484375 43.875 25.3984375 C42.39778578 21.94642111 40.43705999 19.74881814 37.75 17.1484375 C37.02554688 16.44203125 36.30109375 15.735625 35.5546875 15.0078125 C35.00039062 14.47671875 34.44609375 13.945625 33.875 13.3984375 C33.2975 13.6871875 32.72 13.9759375 32.125 14.2734375 C31.3825 14.6446875 30.64 15.0159375 29.875 15.3984375 C29.215 15.80707031 28.555 16.21570312 27.875 16.63671875 C25.875 17.3984375 25.875 17.3984375 23.875 16.75390625 C22.885 16.17576172 22.885 16.17576172 21.875 15.5859375 C19.20412465 14.05748735 16.89729906 13.0258344 13.875 12.3984375 C13.730625 11.2640625 13.58625 10.1296875 13.4375 8.9609375 C13.26328522 5.59066549 13.26328522 5.59066549 11.875 4.3984375 C9.54339945 4.29934448 7.20870058 4.26873246 4.875 4.2734375 C3.59625 4.27085938 2.3175 4.26828125 1 4.265625 C-1.99187244 4.03982857 -1.99187244 4.03982857 -3.125 5.3984375 Z " fill="#0B2355" transform="translate(59.125,11.6015625)"/>
<path d="M0 0 C2.28101091 1.79222286 3.36129968 3.54194953 5 6 C6.794375 6.804375 6.794375 6.804375 8.625 7.625 C15.26813789 10.80741396 20.36656282 16.48849994 23 23.375 C24.22626225 27.76332214 24.16477787 31.99510097 23.91015625 36.51953125 C24.00905977 39.25012839 24.71073904 40.63147133 26 43 C26.4375 46.5 26.4375 46.5 26 50 C22.42374655 54.11811004 19.19555103 54.27079986 14 55 C11.98079663 56.30406884 9.98075027 57.63823419 8 59 C-0.13485974 62.12879221 -8.0196264 61.85011185 -16.1171875 58.859375 C-18 58 -18 58 -20 56.4375 C-22.76438581 54.4505977 -25.55397173 54.16326933 -28.87890625 53.625 C-31.39380585 52.88396144 -32.42889588 52.08492433 -34 50 C-34.32241258 46.51794416 -34.39936349 43.92352808 -33 40.6875 C-31.94920357 37.86348459 -31.95707495 36.22481997 -32.0625 33.25 C-32.18179381 24.30296445 -29.36790748 18.50170703 -23.265625 12.00390625 C-20.37808032 9.44992277 -17.38037349 7.75832314 -13.8828125 6.16796875 C-11.58906459 4.74508364 -11.06518127 3.433304 -10 1 C-6.61147003 -1.54139747 -3.96754849 -1.09740703 0 0 Z M-6 3 C-11.21725318 10.47346346 -15.70959655 18.32399784 -20.1875 26.25 C-21.25682001 28.13575539 -22.32708328 30.02097158 -23.39778137 31.90594482 C-24.36208658 33.60468199 -25.32405973 35.30474236 -26.28588867 37.00488281 C-27.39616524 38.94490174 -28.54549156 40.86329303 -29.73950195 42.75292969 C-31.23201272 44.90228493 -31.23201272 44.90228493 -30.75 47.25 C-30.1315342 48.99226269 -30.1315342 48.99226269 -29 50 C-27.44549012 50.10367027 -25.88631745 50.13851522 -24.32836914 50.14526367 C-23.33386246 50.15164352 -22.33935577 50.15802338 -21.31471252 50.16459656 C-20.23245895 50.16570938 -19.15020538 50.1668222 -18.03515625 50.16796875 C-16.37969032 50.17296135 -16.37969032 50.17296135 -14.69078064 50.17805481 C-12.35123106 50.18312886 -10.01167422 50.18546299 -7.67211914 50.18530273 C-4.08142234 50.18748848 -0.49103296 50.20563734 3.09960938 50.22460938 C5.36718644 50.22754327 7.63476498 50.22952809 9.90234375 50.23046875 C10.98257309 50.23765427 12.06280243 50.24483978 13.17576599 50.25224304 C14.17342484 50.24916641 15.17108368 50.24608978 16.19897461 50.24291992 C17.07976181 50.24434494 17.96054901 50.24576996 18.86802673 50.24723816 C21.21532705 50.19863594 21.21532705 50.19863594 23 48 C22.66828214 43.85330353 20.97482388 40.83157214 18.90234375 37.28125 C18.26925293 36.1893335 17.63616211 35.09741699 16.98388672 33.97241211 C16.30235939 32.81458709 15.62022032 31.65712196 14.9375 30.5 C14.2473106 29.32249233 13.55736948 28.1448391 12.86767578 26.96704102 C11.52044662 24.66957692 10.1679958 22.37543135 8.81298828 20.08251953 C7.3202812 17.54455568 5.85261869 14.99588534 4.40234375 12.43359375 C3.72735327 11.26777097 3.05167045 10.10234849 2.375 8.9375 C1.82585937 7.97714844 1.27671875 7.01679687 0.7109375 6.02734375 C-1.42606382 3.49514355 -2.81059427 3.49751085 -6 3 Z M-18 13 C-22.85606142 18.00240848 -26.15948456 22.21309932 -28 29 C-27.67 29.99 -27.34 30.98 -27 32 C-25.29949343 29.21605957 -23.61688375 26.42172475 -21.9375 23.625 C-21.45216797 22.8309375 -20.96683594 22.036875 -20.46679688 21.21875 C-20.01240234 20.45820312 -19.55800781 19.69765625 -19.08984375 18.9140625 C-18.66566162 18.2123291 -18.24147949 17.5105957 -17.80444336 16.78759766 C-17.53897705 16.19769043 -17.27351074 15.6077832 -17 15 C-17.33 14.34 -17.66 13.68 -18 13 Z M9 13 C10.59623144 17.39383706 12.78024333 21.28995807 15.125 25.3125 C15.49753906 25.95767578 15.87007812 26.60285156 16.25390625 27.26757812 C17.16632213 28.84675945 18.08275509 30.42361864 19 32 C20.40673513 27.77979461 19.05326839 25.51807151 17.390625 21.51953125 C15.31399281 17.75709371 12.49852031 15.41751684 9 13 Z M-14 54 C-10.87593617 57.12406383 -8.52487407 56.97460287 -4.125 57.1875 C-0.44667947 57.1530588 2.56709881 56.37316047 6 55 C6 54.67 6 54.34 6 54 C-0.6 54 -7.2 54 -14 54 Z " fill="#0E2657" transform="translate(68,31)"/>
<path d="M0 0 C0.33 -0.66 0.66 -1.32 1 -2 C2.32 -2 3.64 -2 5 -2 C5.70180531 -0.5903653 6.38593958 0.82807641 7.0625 2.25 C7.44535156 3.03890625 7.82820313 3.8278125 8.22265625 4.640625 C9.08564091 7.25993522 8.93045933 8.44855176 8 11 C6.20767663 10.69128878 4.41615679 10.37790936 2.625 10.0625 C1.62726563 9.88847656 0.62953125 9.71445312 -0.3984375 9.53515625 C-3 9 -3 9 -5 8 C-4.67 6.35 -4.34 4.7 -4 3 C-5.78600569 2.05175986 -7.57920245 1.11706271 -9.375 0.1875 C-10.37273437 -0.33457031 -11.37046875 -0.85664063 -12.3984375 -1.39453125 C-20.46913903 -4.99220839 -27.85701043 -6.56199313 -36.6875 -6.5 C-38.12379761 -6.49141968 -38.12379761 -6.49141968 -39.58911133 -6.48266602 C-56.369463 -6.06467017 -70.21151941 1.18992198 -81.7109375 13.2734375 C-92.15611657 25.71496479 -96.86823131 41.10056343 -95.78125 57.25 C-94.6372697 66.40184243 -92.06968913 75.9393282 -86.6875 83.5625 C-85 86 -85 86 -85 90 C-87.75135762 89.6560803 -88.77108843 89.27812756 -90.5625 87.1015625 C-99.54647827 71.62373038 -102.79766235 54.58474846 -99.31640625 36.828125 C-94.76338928 19.82515705 -84.82471509 6.4093762 -70 -3 C-47.46753265 -15.29282973 -21.2785617 -14.56955637 0 0 Z " fill="#0B2354" transform="translate(101,12)"/>
<path d="M0 0 C1.83984375 0.0390625 1.83984375 0.0390625 4 1 C5.40053893 3.1384573 6.49105871 5.07935392 7.5625 7.375 C8.01701538 8.33599609 8.01701538 8.33599609 8.48071289 9.31640625 C9.34888733 11.19983962 10.18232181 13.09417281 11 15 C11.36867188 15.85851563 11.73734375 16.71703125 12.1171875 17.6015625 C17.24192679 32.58532404 14.91543952 50.74976912 8.71484375 64.94140625 C5.21641933 71.948 0.49809302 77.47341945 -5 83 C-5.59167969 83.62648438 -6.18335937 84.25296875 -6.79296875 84.8984375 C-10.99553933 88.99895891 -15.74964775 91.66249061 -20.9375 94.3125 C-21.59371338 94.65039551 -22.24992676 94.98829102 -22.92602539 95.33642578 C-37.23497496 102.31855682 -55.99375368 102.30578943 -70.9296875 97.28515625 C-82.59956236 92.40043764 -82.59956236 92.40043764 -86 89 C-86.66 89.99 -87.32 90.98 -88 92 C-91 91 -91 91 -92.6875 87.75 C-93.86695969 84.38011516 -94.12537522 82.46274405 -94 79 C-92.3954444 79.14148989 -90.79136233 79.28835686 -89.1875 79.4375 C-87.84751953 79.55931641 -87.84751953 79.55931641 -86.48046875 79.68359375 C-84 80 -84 80 -81 81 C-81.33 82.65 -81.66 84.3 -82 86 C-65.79081347 94.74107964 -49.5106019 98.11205886 -31.375 93.375 C-15.68886588 88.10343034 -2.94482974 76.72326475 4.53515625 61.97265625 C11.05787817 46.58816052 11.44830423 30.79203213 5.625 15.125 C3.63274884 10.29512108 1.44407488 5.61658588 -1 1 C-0.67 0.67 -0.34 0.34 0 0 Z " fill="#0B2354" transform="translate(113,27)"/>
<path d="M0 0 C0.99 0 1.98 0 3 0 C3 5.94 3 11.88 3 18 C2.01 18 1.02 18 0 18 C0 12.06 0 6.12 0 0 Z " fill="#112858" transform="translate(62,49)"/>
</svg>
