<?xml version="1.0" encoding="UTF-8"?>
<svg version="1.1" xmlns="http://www.w3.org/2000/svg" width="128" height="128">
<path d="M0 0 C1.11439453 0.00322266 2.22878906 0.00644531 3.37695312 0.00976562 C4.48748047 -0.00634766 5.59800781 -0.02246094 6.7421875 -0.0390625 C8.33836914 -0.0400293 8.33836914 -0.0400293 9.96679688 -0.04101562 C11.43234009 -0.04548706 11.43234009 -0.04548706 12.92749023 -0.05004883 C15.43945312 0.32226562 15.43945312 0.32226562 17.07516479 1.34231567 C19.21679401 4.45039669 18.83072283 7.7327906 18.7800293 11.3737793 C18.78068642 12.60338631 18.78068642 12.60338631 18.78135681 13.85783386 C18.77926584 16.56887585 18.75592049 19.27930035 18.73242188 21.99023438 C18.72682701 23.869244 18.7225564 25.748258 18.71955872 27.62727356 C18.7081013 32.57412792 18.67862638 37.52071826 18.64544678 42.46746826 C18.61476523 47.51473417 18.60105748 52.56204272 18.5859375 57.609375 C18.55375756 67.51378791 18.50255035 77.41800482 18.43945312 87.32226562 C19.22320312 87.26039062 20.00695312 87.19851562 20.81445312 87.13476562 C22.11382812 87.22757813 22.11382812 87.22757813 23.43945312 87.32226562 C25.43945312 90.32226562 25.43945312 90.32226562 25.12695312 92.44726562 C24.43945312 94.32226562 24.43945312 94.32226562 23.43945312 95.32226562 C21.96161511 95.42011337 20.47912045 95.44858328 18.99804688 95.44924927 C17.55933228 95.453479 17.55933228 95.453479 16.09155273 95.45779419 C15.03073486 95.45576996 13.96991699 95.45374573 12.87695312 95.45166016 C11.21128296 95.45428864 11.21128296 95.45428864 9.51196289 95.45697021 C5.82111066 95.46139135 2.13030589 95.45844982 -1.56054688 95.45507812 C-4.1126303 95.45575109 -6.66471367 95.45672105 -9.21679688 95.45797729 C-14.5735745 95.45945462 -19.93033492 95.45739318 -25.28710938 95.45263672 C-31.48838403 95.44719413 -37.6896258 95.4489568 -43.89089966 95.45446312 C-49.84588903 95.45953999 -55.80086815 95.45901269 -61.75585938 95.45608139 C-64.29492192 95.45541186 -66.8339853 95.45624144 -69.37304688 95.45856094 C-72.91473651 95.46108593 -76.45636204 95.45724904 -79.99804688 95.45166016 C-81.05886475 95.45368439 -82.11968262 95.45570862 -83.21264648 95.45779419 C-84.17178955 95.45497437 -85.13093262 95.45215454 -86.11914062 95.44924927 C-86.95759521 95.44887224 -87.7960498 95.44849522 -88.65991211 95.44810677 C-90.56054687 95.32226562 -90.56054687 95.32226562 -91.56054688 94.32226562 C-91.74804688 91.88476562 -91.74804688 91.88476562 -91.56054688 89.32226562 C-89.56054688 87.32226562 -89.56054688 87.32226562 -86.93554688 87.19726562 C-86.15179688 87.23851563 -85.36804688 87.27976562 -84.56054688 87.32226562 C-84.5649881 86.53743805 -84.56942932 85.75261047 -84.57400513 84.94400024 C-84.61403605 77.55712605 -84.64450787 70.17030425 -84.66417122 62.78334999 C-84.67462009 58.9854025 -84.68879924 55.18754445 -84.71142578 51.38964844 C-84.73311508 47.72625217 -84.74510719 44.06294205 -84.75030136 40.39948654 C-84.75400418 39.00000018 -84.76123465 37.60051868 -84.77200699 36.20106888 C-84.78646913 34.24493232 -84.78736334 32.28870954 -84.78759766 30.33251953 C-84.79203888 29.21777252 -84.7964801 28.10302551 -84.80105591 26.95449829 C-84.56054688 24.32226562 -84.56054688 24.32226562 -82.56054688 22.32226562 C-80.16210938 22.0793457 -80.16210938 22.0793457 -77.18554688 22.09179688 C-76.11820313 22.09373047 -75.05085938 22.09566406 -73.95117188 22.09765625 C-72.83226563 22.10990234 -71.71335937 22.12214844 -70.56054688 22.13476562 C-68.8821875 22.13573242 -68.8821875 22.13573242 -67.16992188 22.13671875 C-58.84111006 22.18198403 -58.84111006 22.18198403 -56.56054688 23.32226562 C-56.56054688 44.44226563 -56.56054688 65.56226563 -56.56054688 87.32226562 C-53.59054688 87.32226562 -50.62054688 87.32226562 -47.56054688 87.32226562 C-47.5649881 86.62513458 -47.56942932 85.92800354 -47.57400513 85.20974731 C-47.61404274 78.64698836 -47.64451129 72.08426338 -47.66417122 65.52140999 C-47.6746183 62.14719568 -47.68879412 58.77308211 -47.71142578 55.39892578 C-47.73559573 51.52178245 -47.74701198 47.64478286 -47.75585938 43.76757812 C-47.76618195 42.55296906 -47.77650452 41.33835999 -47.78713989 40.08694458 C-47.78736649 38.40542801 -47.78736649 38.40542801 -47.78759766 36.68994141 C-47.79203888 35.69954865 -47.7964801 34.70915588 -47.80105591 33.68875122 C-47.56054688 31.32226562 -47.56054688 31.32226562 -45.56054688 29.32226562 C-43.16210938 29.0793457 -43.16210938 29.0793457 -40.18554688 29.09179688 C-39.11820313 29.09373047 -38.05085938 29.09566406 -36.95117188 29.09765625 C-35.83226562 29.10990234 -34.71335938 29.12214844 -33.56054688 29.13476562 C-31.8821875 29.13573242 -31.8821875 29.13573242 -30.16992188 29.13671875 C-21.84111006 29.18198403 -21.84111006 29.18198403 -19.56054688 30.32226562 C-18.54273159 33.37571147 -18.43957447 35.42510355 -18.44702148 38.61987305 C-18.44713478 40.24121407 -18.44713478 40.24121407 -18.44725037 41.89530945 C-18.45241165 43.06100967 -18.45757294 44.2267099 -18.46289062 45.42773438 C-18.46430557 46.62207596 -18.46572052 47.81641754 -18.46717834 49.04695129 C-18.47278338 52.8679147 -18.48533677 56.68881988 -18.49804688 60.50976562 C-18.50306122 63.0976554 -18.50762424 65.6855461 -18.51171875 68.2734375 C-18.52275445 74.6230668 -18.53949752 80.97266205 -18.56054688 87.32226562 C-15.92054687 87.32226562 -13.28054687 87.32226562 -10.56054688 87.32226562 C-10.5649881 86.26182037 -10.56942932 85.20137512 -10.57400513 84.10879517 C-10.61448799 74.13188524 -10.64450081 64.15499189 -10.66417122 54.17801857 C-10.6746238 49.04833182 -10.68880981 43.91871119 -10.71142578 38.7890625 C-10.7331017 33.84186526 -10.74510438 28.89473175 -10.75030136 23.94749069 C-10.75400658 22.05677664 -10.7612416 20.16606621 -10.77200699 18.27537918 C-10.7864522 15.63419206 -10.78852776 12.99327082 -10.78759766 10.35205078 C-10.79478821 9.56442856 -10.80197876 8.77680634 -10.80938721 7.96531677 C-10.77699384 -0.49380219 -7.39987021 0.04936238 0 0 Z M-1.56054688 9.32226562 C-1.56054688 35.06226563 -1.56054688 60.80226563 -1.56054688 87.32226562 C2.06945312 87.32226562 5.69945313 87.32226562 9.43945312 87.32226562 C9.43945312 61.58226562 9.43945312 35.84226562 9.43945312 9.32226562 C5.80945313 9.32226562 2.17945312 9.32226562 -1.56054688 9.32226562 Z M-75.56054688 31.32226562 C-75.56054688 49.80226563 -75.56054688 68.28226563 -75.56054688 87.32226562 C-71.93054688 87.32226562 -68.30054687 87.32226562 -64.56054688 87.32226562 C-64.56054688 68.84226562 -64.56054688 50.36226562 -64.56054688 31.32226562 C-68.19054687 31.32226562 -71.82054688 31.32226562 -75.56054688 31.32226562 Z M-38.56054688 38.32226562 C-38.56054688 54.49226563 -38.56054688 70.66226563 -38.56054688 87.32226562 C-34.93054687 87.32226562 -31.30054688 87.32226562 -27.56054688 87.32226562 C-27.56054688 71.15226562 -27.56054688 54.98226562 -27.56054688 38.32226562 C-31.19054688 38.32226562 -34.82054687 38.32226562 -38.56054688 38.32226562 Z " fill="#0B2354" transform="translate(91.560546875,32.677734375)"/>
<path d="M0 0 C0.98033203 -0.01224609 1.96066406 -0.02449219 2.97070312 -0.03710938 C3.90720703 -0.03904297 4.84371094 -0.04097656 5.80859375 -0.04296875 C6.67154053 -0.04707764 7.5344873 -0.05118652 8.42358398 -0.05541992 C10.5625 0.1875 10.5625 0.1875 12.5625 2.1875 C12.82128906 4.12695312 12.82128906 4.12695312 12.828125 6.46875 C12.83199219 7.73138672 12.83199219 7.73138672 12.8359375 9.01953125 C12.82820313 9.89996094 12.82046875 10.78039063 12.8125 11.6875 C12.82410156 13.00814453 12.82410156 13.00814453 12.8359375 14.35546875 C12.83335938 15.19722656 12.83078125 16.03898437 12.828125 16.90625 C12.82586914 17.67904297 12.82361328 18.45183594 12.82128906 19.24804688 C12.5625 21.1875 12.5625 21.1875 10.5625 23.1875 C8.0625 23.4375 8.0625 23.4375 5.5625 23.1875 C3.20296906 20.82796906 3.07108587 19.40854383 2.5625 16.1875 C1.881875 16.80496094 1.20125 17.42242188 0.5 18.05859375 C-15.4820745 32.02165618 -37.8320946 44.37220168 -59.4375 45.1875 C-60.4275 44.5275 -61.4175 43.8675 -62.4375 43.1875 C-62.75 40.6875 -62.75 40.6875 -62.4375 38.1875 C-60.26136494 36.01136494 -59.41198742 35.7588544 -56.5078125 35.07421875 C-55.71826172 34.88093994 -54.92871094 34.68766113 -54.11523438 34.48852539 C-53.27283203 34.28606201 -52.43042969 34.08359863 -51.5625 33.875 C-34.29068264 29.51338095 -17.22393712 21.97393712 -4.4375 9.1875 C-5.406875 8.878125 -6.37625 8.56875 -7.375 8.25 C-10.4375 7.1875 -10.4375 7.1875 -11.4375 6.1875 C-11.5625 3.6875 -11.5625 3.6875 -11.4375 1.1875 C-9.07794489 -1.17205511 -3.16997174 0.00207595 0 0 Z " fill="#0B2355" transform="translate(85.4375,-0.1875)"/>
</svg>
